<?xml version="1.0" encoding="UTF-8"?>
<svg width="25px" height="26px" viewBox="0 0 25 26" version="1.1" xmlns="http://www.w3.org/2000/svg" xmlns:xlink="http://www.w3.org/1999/xlink">
    <title>minix_logo</title>
    <defs>
        <linearGradient x1="50%" y1="26.3600836%" x2="50%" y2="100%" id="linearGradient-1">
            <stop stop-color="#5466DB" offset="0%"></stop>
            <stop stop-color="#A09AD7" offset="100%"></stop>
        </linearGradient>
        <linearGradient x1="50%" y1="0%" x2="50%" y2="100%" id="linearGradient-2">
            <stop stop-color="#FBE681" offset="0%"></stop>
            <stop stop-color="#F58224" offset="100%"></stop>
        </linearGradient>
    </defs>
    <g id="miniX" stroke="none" stroke-width="1" fill="none" fill-rule="evenodd">
        <g id="minix_logo" transform="translate(0.000000, 0.500000)">
            <rect id="矩形" fill="#D8D8D8" opacity="0" x="0" y="-2.30926389e-14" width="25" height="25"></rect>
            <g id="编组-3" transform="translate(1.500000, 0.000000)">
                <path d="M4.54747351e-13,6.90453125 L10.145,12.701875 L3.4353125,16.595 L3.53788261,14.4188459 L6.35628052,12.7034375 L6.28768677,12.6640625 L2.16025831,10.3877329 L2.16025831,17.6609271 L8.58331977,21.3754743 L8.58331177,18.7975 L8.54323951,18.8034027 L8.54315552,17.0989062 L6.01977539,18.6065987 L3.84125,17.4990625 L10.5014063,13.604375 L10.5257813,24.9385937 L4.54747351e-13,18.8118294 L4.54747351e-13,6.90453125 Z M21.8761466,6.9525 L21.8761466,18.8118294 L11.4432813,24.8845312 L11.45625,13.45125 L17.9265625,17.14875 L15.8865662,18.1784027 L13.458468,16.7834375 L13.4585876,18.090258 L13.4039368,18.098125 L13.4040614,21.3568429 L19.8567375,17.6723083 L19.8567375,10.3438015 L19.4312805,10.5940625 L15.8050305,12.7604687 L18.1079407,14.1396406 L18.3990625,16.2835937 L12.0620313,12.6917187 L21.8761466,6.9525 Z" id="形状" fill="url(#linearGradient-1)"></path>
                <polygon id="路径" fill="url(#linearGradient-2)" points="10.9380885 -1.94511074e-13 21.4515625 6.141875 11.4579688 11.9401562 11.4665625 4.28734375 13.4585876 5.60926493 13.458468 8.3178125 17.2281648 5.99824841 10.9380885 2.3236198 4.6604854 5.99096166 8.54315552 8.389375 8.54323951 5.60926493 10.48125 4.2890625 10.4975 11.8048437 0.46484375 6.11828125"></polygon>
            </g>
        </g>
    </g>
</svg>