<?xml version="1.0" encoding="UTF-8"?>
<svg width="24px" height="25px" viewBox="0 0 24 25" version="1.1" xmlns="http://www.w3.org/2000/svg" xmlns:xlink="http://www.w3.org/1999/xlink">
    <title>avat_coming</title>
    <g id="miniX" stroke="none" stroke-width="1" fill="none" fill-rule="evenodd">
        <g id="05CID（NFT）详情" transform="translate(-884.000000, -262.000000)">
            <g id="avat_coming" transform="translate(884.000000, 262.500000)">
                <circle id="椭圆形" fill="#3572FF" cx="12" cy="12" r="12"></circle>
                <g id="编组" transform="translate(4.000000, 5.500000)">
                    <path d="M7.86012628,0 C10.4272404,0 12.8506649,0.615208341 14.9910079,1.70623324 C14.9910079,1.70623324 14.9910079,1.70623324 14.9910079,1.70623324 C15.4439411,1.93711274 15.723842,2.40777144 15.7104438,2.91597833 C15.7091895,2.96279332 15.7078517,3.00261577 15.7064103,3.03544515 C15.5954402,5.56289847 14.8877891,7.93539415 13.7208534,10.0155357 C12.4500563,12.2808172 10.6345803,14.1993876 8.45187058,15.5938017 C8.4453003,15.5979991 8.43855605,15.6022921 8.43163784,15.6066807 L8.43163043,15.6066691 C8.08221001,15.8283282 7.63612779,15.8279335 7.28710015,15.6056564 C7.28710015,15.6056564 7.28710015,15.6056564 7.28710015,15.6056564 C5.08905763,14.2058404 3.26220612,12.2749827 1.98722394,9.99377445 C0.835859196,7.93374353 0.134537313,5.58800597 0.0163136664,3.08962672 C0.0141212322,3.04329477 0.0121184175,2.98447563 0.0103052222,2.91316931 L0.0103285736,2.91316871 C-0.00256395036,2.406153 0.276857503,1.93679258 0.728714884,1.70645357 C0.728714884,1.70645357 0.728714884,1.70645357 0.728714884,1.70645357 C2.86924765,0.61529467 5.29283208,0 7.86012628,0 Z" id="路径" fill="#FFFFFF"></path>
                    <path d="M7.79403409,2.51420455 C10.1545807,2.51420455 12.0681818,4.41180005 12.0681818,6.75260273 C12.0681818,8.79930456 10.6052268,10.5071729 8.65970372,10.904021 C8.19142484,11.0221126 7.69132691,11.1270099 7.16068597,11.2187348 C6.80260085,11.2806323 6.3204055,11.3596182 5.71410787,11.4557425 C5.58571104,11.4760881 5.45492841,11.4381313 5.35737364,11.3522084 C5.1765098,11.1929096 5.15902785,10.9171533 5.31832661,10.7362895 L5.31832661,10.7362895 L5.37429527,10.6629128 C5.5077309,10.455636 5.40402592,10.2892313 5.26355244,10.1672648 C4.20586062,9.39672433 3.51988636,8.15410243 3.51988636,6.75260273 C3.51988636,4.41180005 5.43348748,2.51420455 7.79403409,2.51420455 Z" id="形状结合备份" fill="#3572FF"></path>
                    <path d="M7.72189778,4.02272727 C8.58287817,4.02272727 9.34950674,4.42669545 9.8425831,5.05543141 C9.8492299,5.06390694 9.85621898,5.07305442 9.86355036,5.08287388 C9.95710091,5.20816831 9.93136416,5.38557674 9.80606802,5.479125 C9.79697616,5.48591314 9.78748446,5.4921486 9.77764429,5.49779765 C9.77764429,5.49779765 9.77764429,5.49779765 9.77764429,5.49779765 C9.48309888,5.66689024 9.25311097,5.79892167 9.08768058,5.89389193 C9.08768058,5.89389193 9.08768058,5.89389193 9.08768058,5.89389193 C8.91152646,5.99501846 8.68970539,5.96731858 8.54381791,5.82599026 C8.53544052,5.81787337 8.52734268,5.81039569 8.51952438,5.80355721 C8.3063729,5.61711871 8.02732843,5.50414605 7.72189778,5.50414605 C7.05249005,5.50414605 6.50982787,6.04680823 6.50982787,6.71621596 C6.50982787,7.38562369 7.05249005,7.92828587 7.72189778,7.92828587 C8.08675629,7.92828587 8.41396175,7.76707397 8.63616881,7.51199552 C8.63616881,7.51199552 8.63616881,7.51199552 8.63616881,7.51199552 C8.73880402,7.39417734 8.91025951,7.36502992 9.04605897,7.44231908 C9.05924578,7.44982355 9.07146793,7.45677904 9.08272543,7.46318557 C9.25851148,7.56322353 9.50436604,7.70313672 9.82028911,7.88292516 C9.82028911,7.88292516 9.82028911,7.88292516 9.82028911,7.88292516 C9.9543671,7.95922751 10.0012035,8.12977448 9.92490117,8.26385247 C9.92012433,8.27224629 9.91491539,8.28038672 9.90928668,8.28823478 C9.90795202,8.29010001 9.90663304,8.291933 9.90532973,8.29373375 C9.41598999,8.96984613 8.62031112,9.40970465 7.72189778,9.40970465 C6.23432505,9.40970465 5.02840909,8.20378869 5.02840909,6.71621596 C5.02840909,5.22864323 6.23432505,4.02272727 7.72189778,4.02272727 Z" id="路径" fill="#FFFFFF"></path>
                </g>
            </g>
        </g>
    </g>
</svg>