<?xml version="1.0" encoding="UTF-8"?>
<svg width="17px" height="17px" viewBox="0 0 17 17" version="1.1" xmlns="http://www.w3.org/2000/svg" xmlns:xlink="http://www.w3.org/1999/xlink">
    <title>icon_description</title>
    <g id="miniX" stroke="none" stroke-width="1" fill="none" fill-rule="evenodd">
        <g id="05CID（NFT）详情" transform="translate(-884.000000, -216.000000)">
            <g id="icon_description" transform="translate(884.000000, 216.500000)">
                <rect id="矩形" fill="#D8D8D8" opacity="0" x="0.5" y="0" width="16" height="16"></rect>
                <path d="M11.2574119,13.4153437 L4.02804414,13.4153437 L4.02804411,13.4153437 C3.64591086,13.4124115 3.338198,13.1008277 3.34003132,12.7186867 L3.34003132,12.7186848 C3.33781822,12.3362765 3.6456421,12.024273 4.02804567,12.0213418 L11.2574291,12.0213418 C11.6374295,12.0213418 11.9454381,12.334014 11.9454381,12.7186863 L11.9454381,12.7186921 C11.9472724,13.1008332 11.6395577,13.4124148 11.2574229,13.4153437 L11.2574119,13.4153437 Z M14.4240719,0.614000714 C14.1014152,0.679328915 13.8787431,0.982673018 13.8787431,1.31400153 L13.8787431,12.7093429 C13.8787431,13.5560158 13.2007423,14.2446885 12.3634132,14.2446885 L3.18340253,14.2446885 L3.18340256,14.2446885 C2.89695379,14.242865 2.66621915,14.0091741 2.66804259,13.7227253 C2.6680427,13.7227078 2.66804281,13.7226903 2.66804293,13.7226727 L2.66804293,11.7706861 C2.66804293,11.4866858 2.89604319,11.2560136 3.17671539,11.2560136 L9.72339489,11.2560136 C11.2573967,11.2560136 12.5007262,9.99601215 12.5007262,8.44133847 L12.5007262,2.11533111 C12.5007419,0.947345373 11.5660689,5.20492279e-07 10.4127394,5.20492279e-07 L3.37673125,5.20492279e-07 C2.22340178,5.20492279e-07 1.28872882,0.947345373 1.28872882,2.11533111 L1.28872882,13.7220165 C1.28872882,14.7813458 2.13672981,15.6406906 3.18205915,15.6406906 L12.3620698,15.6406906 C13.9587436,15.6406906 15.2541307,14.3293453 15.2541307,12.7093434 L15.2541307,1.2966739 L15.2541307,1.2966737 C15.2589373,0.916360761 14.954576,0.604113523 14.5742646,0.599249455 C14.5235923,0.598601373 14.4730032,0.60354835 14.4234165,0.61400055 L14.4240719,0.614000714 Z" id="形状" fill="#040B38" fill-rule="nonzero"></path>
            </g>
        </g>
    </g>
</svg>