<?xml version="1.0" encoding="UTF-8"?>
<svg width="14px" height="13px" viewBox="0 0 14 13" version="1.1" xmlns="http://www.w3.org/2000/svg" xmlns:xlink="http://www.w3.org/1999/xlink">
    <title>icon_star</title>
    <g id="miniX" stroke="none" stroke-width="1" fill="none" fill-rule="evenodd">
        <g id="05CID（NFT）详情" transform="translate(-1165.000000, -535.000000)" fill="#040B38">
            <g id="编组-6" transform="translate(884.000000, 534.000000)">
                <path d="M288,12 L285.09119,13.5292518 C284.602346,13.7862527 283.997718,13.5983061 283.740718,13.1094615 C283.638379,12.9148011 283.603064,12.691833 283.640241,12.4750754 L284.195774,9.23606798 L284.195774,9.23606798 L281.842497,6.94219021 C281.447014,6.556689 281.438921,5.92357573 281.824423,5.52809216 C281.977931,5.37060852 282.179074,5.26812134 282.396711,5.23649683 L285.648859,4.76393202 L285.648859,4.76393202 L287.103264,1.81698575 C287.347686,1.32173209 287.947312,1.11839309 288.442566,1.36281539 C288.639778,1.46014562 288.799406,1.61977315 288.896736,1.81698575 L290.351141,4.76393202 L290.351141,4.76393202 L293.603289,5.23649683 C294.149834,5.31591445 294.528516,5.8233573 294.449098,6.36990216 C294.417473,6.58753919 294.314986,6.7886816 294.157503,6.94219021 L291.804226,9.23606798 L291.804226,9.23606798 L292.359759,12.4750754 C292.45312,13.0194118 292.087532,13.5363677 291.543196,13.6297287 C291.326438,13.6669056 291.10347,13.6315909 290.90881,13.5292518 L288,12 L288,12 Z" id="icon_star"></path>
            </g>
        </g>
    </g>
</svg>