<?xml version="1.0" encoding="UTF-8"?>
<svg width="238px" height="148px" viewBox="0 0 238 148" version="1.1" xmlns="http://www.w3.org/2000/svg" xmlns:xlink="http://www.w3.org/1999/xlink">
    <title>img_search_none</title>
    <defs>
        <rect id="path-1" x="0" y="17.2656507" width="171" height="100" rx="12"></rect>
        <mask id="mask-2" maskContentUnits="userSpaceOnUse" maskUnits="objectBoundingBox" x="0" y="0" width="171" height="100" fill="white">
            <use xlink:href="#path-1"></use>
        </mask>
    </defs>
    <g id="miniX" stroke="none" stroke-width="1" fill="none" fill-rule="evenodd">
        <g id="01-首页搜索3" transform="translate(-519.000000, -250.000000)">
            <g id="编组-6" transform="translate(519.382825, 250.000000)">
                <g id="编组-3" transform="translate(35.117175, 14.000000)">
                    <use id="矩形" stroke="#4573DE" mask="url(#mask-2)" stroke-width="6" stroke-dasharray="10" xlink:href="#path-1"></use>
                    <path d="M21.5,33.7656507 L161,33.7656507 C164.865993,33.7656507 168,36.8996574 168,40.7656507 L168,106.765651 C168,110.631644 164.865993,113.765651 161,113.765651 L21.5,113.765651 C17.6340068,113.765651 14.5,110.631644 14.5,106.765651 L14.5,40.7656507 C14.5,36.8996574 17.6340068,33.7656507 21.5,33.7656507 Z" id="矩形" fill="#D5DEF4"></path>
                    <path d="M128.260101,1.5 C129.778884,1.5 131.153884,2.11560847 132.149188,3.1109127 C133.144492,4.10621694 133.760101,5.48121694 133.760101,7 L133.760101,7 L133.760101,127 C133.760101,128.518783 133.144492,129.893783 132.149188,130.889087 C131.153884,131.884392 129.778884,132.5 128.260101,132.5 L128.260101,132.5 L42.682119,132.5 C41.1633359,132.5 39.7883359,131.884392 38.7930317,130.889087 C37.7977275,129.893783 37.182119,128.518783 37.182119,127 L37.182119,127 L37.182119,25.6405193 L61.6278614,1.5 Z" id="矩形" stroke="#D5DEF4" stroke-width="3" fill="#F8F9FA"></path>
                    <rect id="矩形" fill="#4573DE" x="51.2601006" y="38.5" width="68.4797987" height="7.62520545"></rect>
                    <rect id="矩形" fill="#4573DE" x="51.2601006" y="54.1252055" width="68.4797987" height="7.62520545"></rect>
                    <rect id="矩形备份" fill="#4573DE" x="51.2601006" y="70.0910804" width="68.4797987" height="7.62520545"></rect>
                    <rect id="矩形备份-2" fill="#4573DE" x="51.2601006" y="85.7162858" width="68.4797987" height="7.62520545"></rect>
                    <path d="M59.2162441,3.62132034 L59.2162441,23.5341251 L39.3034393,23.5341251 L59.2162441,3.62132034 Z" id="矩形" stroke="#D5DEF4" stroke-width="3" fill="#D5DEF4"></path>
                    <g id="编组-4" transform="translate(77.182119, 30.500000)">
                        <circle id="椭圆形" stroke="#4573DE" stroke-width="5" fill-opacity="0.651469624" fill="#F8F9FA" cx="35.5" cy="35.5" r="33"></circle>
                        <path d="M60.9895924,55.3835477 L68.9895924,55.3835477 L68.9895924,76.3835477 C68.9895924,78.5926867 67.1987314,80.3835477 64.9895924,80.3835477 C62.7804534,80.3835477 60.9895924,78.5926867 60.9895924,76.3835477 L60.9895924,55.3835477 L60.9895924,55.3835477 Z" id="矩形" fill="#4573DE" transform="translate(64.989592, 67.883548) rotate(-45.000000) translate(-64.989592, -67.883548) "></path>
                    </g>
                </g>
                <rect id="矩形" fill="#D5DEF4" x="215.944425" y="87.5" width="17" height="4"></rect>
                <rect id="矩形" fill="#D5DEF4" transform="translate(224.444425, 89.500000) rotate(-270.000000) translate(-224.444425, -89.500000) " x="215.944425" y="87.5" width="17" height="4"></rect>
                <rect id="矩形" fill="#D5DEF4" x="58.6171747" y="6.5" width="17" height="4"></rect>
                <rect id="矩形" fill="#D5DEF4" transform="translate(67.117175, 8.500000) rotate(-270.000000) translate(-67.117175, -8.500000) " x="58.6171747" y="6.5" width="17" height="4"></rect>
                <circle id="椭圆形" stroke="#D5DEF4" stroke-width="3" fill="#F8F9FA" cx="6" cy="57.6171747" r="4.5"></circle>
                <circle id="椭圆形" stroke="#D5DEF4" stroke-width="3" fill="#F8F9FA" cx="230.444425" cy="20" r="4.5"></circle>
                <circle id="椭圆形" fill="#4573DE" cx="23.6171747" cy="93.5288885" r="3.5"></circle>
            </g>
        </g>
    </g>
</svg>