<?xml version="1.0" encoding="UTF-8"?>
<svg width="103px" height="40px" viewBox="0 0 103 40" version="1.1" xmlns="http://www.w3.org/2000/svg" xmlns:xlink="http://www.w3.org/1999/xlink">
    <title>logo_miniX</title>
    <defs>
        <linearGradient x1="50%" y1="26.3600836%" x2="50%" y2="100%" id="linearGradient-1">
            <stop stop-color="#5466DB" offset="0%"></stop>
            <stop stop-color="#A09AD7" offset="100%"></stop>
        </linearGradient>
        <linearGradient x1="50%" y1="0%" x2="50%" y2="100%" id="linearGradient-2">
            <stop stop-color="#FBE681" offset="0%"></stop>
            <stop stop-color="#F58224" offset="100%"></stop>
        </linearGradient>
    </defs>
    <g id="miniX" stroke="none" stroke-width="1" fill="none" fill-rule="evenodd">
        <g id="01-首页搜索3" transform="translate(-24.000000, -10.000000)">
            <g id="logo_miniX" transform="translate(24.000000, 10.000000)">
                <g id="编组-4" transform="translate(44.000000, 13.000000)" fill="#FFFFFF" stroke="#FFFFFF" stroke-width="0.5">
                    <path d="M4.13257143,7.58857143 C4.31542857,7.88114286 4.608,8.02742857 4.91885714,8.02742857 C5.26628571,8.02742857 5.52228571,7.91771429 5.70514286,7.62514286 L8.81371429,2.87085714 C8.86857143,2.77942857 8.94171429,2.77942857 8.97828571,2.77942857 C9.088,2.77942857 9.10628571,2.87085714 9.10628571,2.96228571 L9.10628571,13.184 C9.10628571,13.5314286 9.28914286,13.8788571 9.61828571,13.8788571 C10.0571429,13.8788571 10.112,13.4034286 10.112,13.184 L10.112,1.20685714 C10.112,0.713820106 9.772874,0.661646874 9.60079895,0.65845851 L9.52005655,0.658977046 C9.31551264,0.664507696 9.11878378,0.711518228 8.86975421,1.07654118 L5.19314286,6.71085714 C5.12,6.82057143 5.04685714,6.87542857 4.95542857,6.87542857 C4.864,6.87542857 4.77257143,6.80228571 4.71771429,6.71085714 L1.28,1.11542857 C1.09714286,0.804571429 0.896,0.658285714 0.548571429,0.658285714 C0.256,0.658285714 0,0.786285714 0,1.22514286 L0,13.184 C0,13.4765714 0.128,13.8788571 0.493714286,13.8788571 C0.914285714,13.8788571 1.00571429,13.4034286 1.00571429,13.184 L1.00571429,3.09028571 C1.00571429,2.98057143 1.07885714,2.90742857 1.17028571,2.90742857 C1.22514286,2.90742857 1.29828571,2.944 1.33485714,2.99885714 L4.13257143,7.58857143 Z M17.92,0 C17.4581382,0 17.3985432,0.332910361 17.3908535,0.781265445 L17.3902446,1.08853029 C17.3950171,1.50473143 17.4427429,2.85257143 17.92,2.85257143 C18.432,2.85257143 18.4685714,1.33485714 18.4685714,0.896 L18.4680229,0.782043429 C18.4630857,0.429531429 18.4137143,0 17.92,0 Z M21.12,13.6045714 C21.4308571,13.6045714 21.7965714,13.44 21.7965714,13.1291429 C21.7965714,12.7071648 21.3401048,12.6402164 21.1099208,12.6356907 L19.6205714,12.6354286 C18.6550857,12.6354286 18.4762921,12.3557158 18.4688225,11.4031386 L18.4685714,6.25371429 C18.4685714,5.15657143 17.664,4.24228571 16.0548571,4.24228571 L14.3187399,4.24275765 C14.1428085,4.2474027 13.6411429,4.29443386 13.6411429,4.71771429 C13.6411429,5.06514286 14.0617143,5.19314286 14.3542857,5.19314286 L15.9817143,5.19314286 C17.0788571,5.19314286 17.4811429,5.55885714 17.4811429,6.71085714 L17.4811429,11.3371429 C17.4811429,12.3245714 17.3348571,12.6354286 16.2194286,12.6354286 L13.7589804,12.6359446 C13.6175554,12.6408385 13.1657143,12.6888791 13.1657143,13.1108571 C13.1657143,13.4582857 13.5131429,13.6045714 13.7874286,13.6045714 L21.12,13.6045714 Z M32.5668571,13.312 C32.7314286,13.5862857 33.0057143,13.7874286 33.3348571,13.7874286 C33.664,13.7874286 33.8468571,13.5131429 33.8468571,13.2388571 L33.8468571,1.26171429 C33.8468571,1.00571429 33.7371429,0.603428571 33.3165714,0.603428571 C32.9485714,0.603428571 32.8492698,0.922507937 32.8416336,1.22269444 L32.8411429,11.0994286 C32.8411429,11.1725714 32.8045714,11.3005714 32.6765714,11.3005714 C32.6034286,11.3005714 32.5485714,11.2457143 32.512,11.1908571 L26.2948571,1.13371429 L26.2640274,1.08041143 C26.1610057,0.91008 25.9602286,0.658285714 25.5817143,0.658285714 C25.2708571,0.658285714 25.0331429,0.841142857 25.0331429,1.20685714 L25.0331429,13.184 C25.0331429,13.44 25.1611429,13.8788571 25.5268571,13.8788571 C25.856,13.8788571 26.0388571,13.5314286 26.0388571,13.184 L26.0388571,3.10857143 C26.0388571,2.99885714 26.0937143,2.90742857 26.2034286,2.90742857 C26.2765714,2.90742857 26.3131429,2.96228571 26.3497143,3.01714286 L32.5668571,13.312 Z M42.3131429,0 C41.8512811,0 41.791686,0.332910361 41.7839964,0.781265445 L41.7833874,1.08853029 C41.78816,1.50473143 41.8358857,2.85257143 42.3131429,2.85257143 C42.8251429,2.85257143 42.8617143,1.33485714 42.8617143,0.896 L42.8611657,0.782043429 C42.8562286,0.429531429 42.8068571,0 42.3131429,0 Z M45.5131429,13.6045714 C45.824,13.6045714 46.1897143,13.44 46.1897143,13.1291429 C46.1897143,12.7071648 45.7332477,12.6402164 45.5030637,12.6356907 L44.0137143,12.6354286 C43.0482286,12.6354286 42.8694349,12.3557158 42.8619653,11.4031386 L42.8617143,6.25371429 C42.8617143,5.15657143 42.0571429,4.24228571 40.448,4.24228571 L38.7118828,4.24275765 C38.5359514,4.2474027 38.0342857,4.29443386 38.0342857,4.71771429 C38.0342857,5.06514286 38.4548571,5.19314286 38.7474286,5.19314286 L40.3748571,5.19314286 C41.472,5.19314286 41.8742857,5.55885714 41.8742857,6.71085714 L41.8742857,11.3371429 C41.8742857,12.3245714 41.728,12.6354286 40.6125714,12.6354286 L38.1521233,12.6359446 C38.0106982,12.6408385 37.5588571,12.6888791 37.5588571,13.1108571 C37.5588571,13.4582857 37.9062857,13.6045714 38.1805714,13.6045714 L45.5131429,13.6045714 Z" id="MiNiX" fill-rule="nonzero"></path>
                    <path d="M54.4909269,5.02802587 L57.2525714,0.987428571 C57.3805714,0.804571429 57.5451429,0.658285714 57.7645714,0.658285714 C58.0205714,0.658285714 58.2034286,0.841142857 58.2034286,1.11542857 C58.2034286,1.26171429 58.1302857,1.44457143 58.0571429,1.55428571 L55.4605714,5.35771429 C55.0217143,5.99771429 54.7474286,6.63771429 54.7474286,6.98514286 C54.7474286,7.296 55.0217143,7.89942857 55.4971429,8.576 L58.6057143,13.0011429 C58.6788571,13.0925714 58.752,13.2571429 58.752,13.3851429 C58.752,13.5314286 58.6788571,13.824 58.3314286,13.824 C58.1276735,13.824 57.9239184,13.7136327 57.7787255,13.5221791 L54.528,8.94171429 C54.3451429,8.68571429 54.0891429,8.50285714 53.7782857,8.50285714 C53.4674286,8.50285714 53.1931429,8.704 53.0468571,8.92342857 L49.9748571,13.4034286 C49.8834286,13.5314286 49.6091429,13.824 49.3348571,13.824 C49.0788571,13.824 48.9325714,13.6045714 48.9325714,13.3851429 C48.9325714,13.2388571 48.9874286,13.0742857 49.0788571,12.9462857 L52.0411429,8.61257143 C52.5348571,7.89942857 52.7177143,7.36914286 52.7177143,7.00342857 C52.7177143,6.60114286 52.4251429,5.96114286 52.0228571,5.39428571 L49.3165714,1.57257143 C49.2434286,1.46285714 49.152,1.28 49.152,1.13371429 C49.152,0.877714286 49.3348571,0.658285714 49.5908571,0.658285714 C49.7371429,0.658285714 49.9565714,0.749714286 50.1394286,1.00571429 L52.992,5.02857143 C53.248,5.376 53.4857143,5.57714286 53.7417143,5.57714286 C54.0180317,5.57714286 54.2780388,5.33248677 54.4909269,5.02802587 L54.4909269,5.02802587 Z" id="路径"></path>
                </g>
                <g id="编组-3" transform="translate(0.000000, 0.000000)">
                    <path d="M0,11.04725 L16.232,20.323 L5.4965,26.552 L5.66061217,23.0701534 L10.1700488,20.3255 L10.0602988,20.2625 L3.4564133,16.6203726 L3.4564133,28.2574833 L13.7333116,34.2007589 L13.7332988,30.076 L13.6691832,30.0854442 L13.6690488,27.35825 L9.63164063,29.770558 L6.146,27.9985 L16.80225,21.767 L16.84125,39.90175 L0,30.0989271 L0,11.04725 Z M35.0018345,11.124 L35.0018345,30.0989271 L18.30925,39.81525 L18.33,21.522 L28.6825,27.438 L25.4185059,29.0854442 L21.5335488,26.8535 L21.5337402,28.9444128 L21.4462988,28.957 L21.4464983,34.1709486 L31.77078,28.2756933 L31.77078,16.5500825 L31.0900488,16.9505 L25.2880488,20.41675 L28.9727051,22.6234249 L29.4385,26.05375 L19.29925,20.30675 L35.0018345,11.124 Z" id="形状" fill="url(#linearGradient-1)"></path>
                    <polygon id="路径" fill="url(#linearGradient-2)" points="17.5009417 -2.27373675e-13 34.3225 9.827 18.33275 19.10425 18.3465 6.85975 21.5337402 8.97482389 21.5335488 13.3085 27.5650637 9.59719745 17.5009417 3.71779168 7.45677664 9.58553866 13.6690488 13.423 13.6691832 8.97482389 16.77 6.8625 16.796 18.88775 0.74375 9.78925"></polygon>
                </g>
            </g>
        </g>
    </g>
</svg>