<?xml version="1.0" encoding="UTF-8"?>
<svg width="225px" height="73px" viewBox="0 0 225 73" version="1.1" xmlns="http://www.w3.org/2000/svg" xmlns:xlink="http://www.w3.org/1999/xlink">
    <title>logo_miniX-home</title>
    <defs>
        <linearGradient x1="50%" y1="26.3600836%" x2="50%" y2="100%" id="linearGradient-1">
            <stop stop-color="#5466DB" offset="0%"></stop>
            <stop stop-color="#A09AD7" offset="100%"></stop>
        </linearGradient>
        <linearGradient x1="50%" y1="0%" x2="50%" y2="100%" id="linearGradient-2">
            <stop stop-color="#FBE681" offset="0%"></stop>
            <stop stop-color="#F58224" offset="100%"></stop>
        </linearGradient>
    </defs>
    <g id="miniX" stroke="none" stroke-width="1" fill="none" fill-rule="evenodd">
        <g id="01-首页搜索1" transform="translate(-522.000000, -197.000000)">
            <g id="logo_miniX-home" transform="translate(522.500000, 197.000000)">
                <g id="编组-4" transform="translate(79.428358, 19.530224)" fill="#040B38" stroke="#040B38" stroke-width="1.5">
                    <path d="M10.0184017,18.3966226 C10.4616938,19.10589 11.1709612,19.4605237 11.9245578,19.4605237 C12.7668128,19.4605237 13.3874217,19.1945484 13.8307139,18.485281 L21.3666797,6.95968614 C21.4996674,6.73804009 21.6769842,6.73804009 21.7656426,6.73804009 C22.0316179,6.73804009 22.0759471,6.95968614 22.0759471,7.1813322 L22.0759471,31.9613612 C22.0759471,32.8036162 22.5192392,33.6458712 23.317165,33.6458712 C24.3810661,33.6458712 24.5140537,32.4933117 24.5140537,31.9613612 L24.5140537,2.92572793 C24.5140537,1.73048106 23.6919262,1.6039999 23.2747727,1.5962705 L23.0790326,1.59752756 C22.5831663,1.61093526 22.1062456,1.72490072 21.5025347,2.60980898 L12.5894959,16.2688205 C12.4121791,16.5347957 12.2348623,16.6677834 12.0132162,16.6677834 C11.7915701,16.6677834 11.5699241,16.4904665 11.4369365,16.2688205 L3.10304478,2.70408188 C2.65975267,1.95048529 2.17213134,1.5958516 1.32987633,1.5958516 C0.620608955,1.5958516 0,1.90615608 0,2.97005714 L0,31.9613612 C0,32.6706286 0.310304478,33.6458712 1.1968887,33.6458712 C2.21646055,33.6458712 2.43810661,32.4933117 2.43810661,31.9613612 L2.43810661,7.49163667 C2.43810661,7.22566141 2.61542345,7.04834456 2.83706951,7.04834456 C2.97005714,7.04834456 3.14737399,7.13700299 3.23603241,7.26999062 L10.0184017,18.3966226 Z M43.4426269,0 C42.3229568,0 42.1784832,0.807059185 42.1598415,1.89398567 L42.1583653,2.63887361 C42.1699352,3.64785078 42.2856345,6.91535693 43.4426269,6.91535693 C44.6838448,6.91535693 44.7725032,3.23603241 44.7725032,2.17213134 L44.7711733,1.8958717 C44.7592044,1.04129317 44.6395156,0 43.4426269,0 Z M51.2002388,32.980933 C51.9538354,32.980933 52.8404196,32.5819701 52.8404196,31.8283736 C52.8404196,30.8053918 51.7338287,30.6430918 51.1758043,30.6321204 L47.5652435,30.6314849 C45.2246612,30.6314849 44.79122,29.9533902 44.7731118,27.6441013 L44.7725032,15.1605902 C44.7725032,12.5008375 42.8220179,10.284377 38.9210473,10.284377 L34.7122587,10.2855211 C34.2857564,10.2967819 33.0695915,10.4107973 33.0695915,11.4369365 C33.0695915,12.2791915 34.0891633,12.5894959 34.7984307,12.5894959 L38.7437305,12.5894959 C41.4034832,12.5894959 42.3787258,13.4760802 42.3787258,16.2688205 L42.3787258,27.4841109 C42.3787258,29.8778883 42.0240921,30.6314849 39.3200102,30.6314849 L33.3552596,30.6327358 C33.0124094,30.6446 31.917032,30.7610626 31.917032,31.7840443 C31.917032,32.6262994 32.759287,32.980933 33.4242252,32.980933 L51.2002388,32.980933 Z M78.9503249,32.2716657 C79.3492878,32.9366038 80.014226,33.4242252 80.8121518,33.4242252 C81.6100776,33.4242252 82.0533697,32.759287 82.0533697,32.0943488 L82.0533697,3.05871557 C82.0533697,2.43810661 81.7873945,1.46286397 80.7678226,1.46286397 C79.8756972,1.46286397 79.634965,2.23639331 79.6164528,2.96412157 L79.6152631,26.9078311 C79.6152631,27.085148 79.5266047,27.3954525 79.2163002,27.3954525 C79.0389834,27.3954525 78.9059957,27.2624648 78.8173373,27.1294772 L63.7454055,2.74841109 L63.6706665,2.61919144 C63.4209157,2.20626484 62.934181,1.5958516 62.0165663,1.5958516 C61.2629697,1.5958516 60.68669,2.03914371 60.68669,2.92572793 L60.68669,31.9613612 C60.68669,32.5819701 60.9969945,33.6458712 61.8835787,33.6458712 C62.6815045,33.6458712 63.1247966,32.8036162 63.1247966,31.9613612 L63.1247966,7.53596588 C63.1247966,7.26999062 63.2577842,7.04834456 63.5237595,7.04834456 C63.7010763,7.04834456 63.7897348,7.1813322 63.8783932,7.31431983 L78.9503249,32.2716657 Z M102.577794,0 C101.458124,0 101.313651,0.807059185 101.295009,1.89398567 L101.293533,2.63887361 C101.305103,3.64785078 101.420802,6.91535693 102.577794,6.91535693 C103.819012,6.91535693 103.907671,3.23603241 103.907671,2.17213134 L103.906341,1.8958717 C103.894372,1.04129317 103.774683,0 102.577794,0 Z M110.335406,32.980933 C111.089003,32.980933 111.975587,32.5819701 111.975587,31.8283736 C111.975587,30.8053918 110.868996,30.6430918 110.310972,30.6321204 L106.700411,30.6314849 C104.359829,30.6314849 103.926388,29.9533902 103.908279,27.6441013 L103.907671,15.1605902 C103.907671,12.5008375 101.957186,10.284377 98.0562149,10.284377 L93.8474263,10.2855211 C93.420924,10.2967819 92.2047591,10.4107973 92.2047591,11.4369365 C92.2047591,12.2791915 93.2243309,12.5894959 93.9335983,12.5894959 L97.8788981,12.5894959 C100.538651,12.5894959 101.513893,13.4760802 101.513893,16.2688205 L101.513893,27.4841109 C101.513893,29.8778883 101.15926,30.6314849 98.4551778,30.6314849 L92.4904272,30.6327358 C92.147577,30.6446 91.0521996,30.7610626 91.0521996,31.7840443 C91.0521996,32.6262994 91.8944546,32.980933 92.5593928,32.980933 L110.335406,32.980933 Z" id="MiNiX" fill-rule="nonzero"></path>
                    <path d="M132.099833,12.1892105 L138.79476,2.3937774 C139.105064,1.95048529 139.504027,1.5958516 140.035978,1.5958516 C140.656587,1.5958516 141.099879,2.03914371 141.099879,2.70408188 C141.099879,3.05871557 140.922562,3.50200768 140.745245,3.76798294 L134.450497,12.9884588 C133.386596,14.5399812 132.721658,16.0915036 132.721658,16.9337586 C132.721658,17.6873552 133.386596,19.1502192 134.539156,20.7904 L142.075122,31.5180691 C142.252438,31.7397151 142.429755,32.138678 142.429755,32.4489825 C142.429755,32.8036162 142.252438,33.5128836 141.410183,33.5128836 C140.916229,33.5128836 140.422275,33.2453251 140.070291,32.7811931 L132.189707,21.6769842 C131.746415,21.0563753 131.125806,20.6130832 130.37221,20.6130832 C129.618613,20.6130832 128.953675,21.1007045 128.599041,21.632655 L121.151734,32.4933117 C120.930088,32.8036162 120.26515,33.5128836 119.600212,33.5128836 C118.979603,33.5128836 118.624969,32.980933 118.624969,32.4489825 C118.624969,32.0943488 118.757957,31.6953859 118.979603,31.3850814 L126.160935,20.8790584 C127.357823,19.1502192 127.801116,17.8646721 127.801116,16.9780878 C127.801116,16.0028452 127.091848,14.4513228 126.116606,13.0771173 L119.555882,3.81231215 C119.378565,3.54633689 119.156919,3.10304478 119.156919,2.74841109 C119.156919,2.12780213 119.600212,1.5958516 120.22082,1.5958516 C120.575454,1.5958516 121.107405,1.81749765 121.550697,2.43810661 L128.466054,12.190533 C129.086663,13.0327881 129.662942,13.5204094 130.283551,13.5204094 C130.953415,13.5204094 131.583738,12.927301 132.099833,12.1892105 L132.099833,12.1892105 Z" id="路径"></path>
                </g>
                <g id="编组-3" transform="translate(0.544776, 0.544776)">
                    <path d="M0,19.8603174 L29.1812597,36.5359007 L9.8813944,47.7341552 L10.1764289,41.4746266 L18.2833191,36.5403951 L18.0860148,36.4271362 L6.21380569,29.8794609 L6.21380569,50.8002069 L24.6892147,61.4847972 L24.6891917,54.0694657 L24.5739271,54.0864442 L24.5736855,49.1836002 L17.3153898,53.5203538 L11.0490403,50.3346168 L30.206433,39.1318679 L30.2765457,71.7338177 L0,54.1106831 L0,19.8603174 Z M62.9249398,19.9982955 L62.9249398,54.1106831 L32.9156591,71.5783114 L32.9529627,38.6914164 L51.5642854,49.3269716 L45.6964034,52.288683 L38.7121785,48.2761802 L38.7125226,52.035142 L38.5553238,52.0577709 L38.5556824,61.4312053 L57.1162753,50.8329442 L57.1162753,29.753096 L55.8924833,30.4729511 L45.4618729,36.7044409 L52.0860049,40.6715154 L52.9233929,46.8384207 L34.6954427,36.5066871 L62.9249398,19.9982955 Z" id="形状" fill="url(#linearGradient-1)"></path>
                    <polygon id="路径" fill="url(#linearGradient-2)" points="31.4625138 -4.0876357e-13 61.7036586 17.6665993 32.9579065 34.3448793 32.9826257 12.3321924 38.7125226 16.1345901 38.7121785 23.9255049 49.5554019 17.2534692 31.4625138 6.6837016 13.4055037 17.2325094 24.5736855 24.1313485 24.5739271 16.1345901 30.1484552 12.3371362 30.195197 33.955664 1.33708489 17.5987338"></polygon>
                </g>
            </g>
        </g>
    </g>
</svg>